# xmcd CD database file
#
# Track frame offsets:
#	150
#	13796
#	28419
#	42119
#	55709
#	67705
#	81743
#	95566
#	109905
#	122871
#	136075
#	148336
#	161621
#	176270
#	189335
#	201725
#	216412
#	230994
#	243914
#	256186
#	265629
#	279871
#	293265
#	308084
#
# Disc length: 4290 seconds
#
# Revision: 0
# Processed by: cddbd v1.5.1PL0 Copyright (c) Steve Scherf et al.
# Submitted via: CDex 1.50
#
DISCID=6010c018
DTITLE=Nat King Cole - The Greatest Hits - CD2
DYEAR=1900
DGENRE=Jazz
TTITLE0=What can I say after I say I`m Sorry
TTITLE1=To a wild Rose
TTITLE2=Could-`Ja
TTITLE3=Baby, Baby all the Time
TTITLE4=Oh, but I do
TTITLE5=But she`s my Buddy`s Chick
TTITLE6=You call it Madness
TTITLE7=Chant of the Blues
TTITLE8=I tho`t you ought to know
TTITLE9=It only Happens Once
TTITLE10=Black Market Stuff
TTITLE11=Laguna Leap
TTITLE12=I`ll never be the same
TTITLE13=Swinging` on Central
TTITLE14=Nat`s Kick-Part 1
TTITLE15=Nat`s Kick-Part 2
TTITLE16=The Christmas Song
TTITLE17=You should have told me
TTITLE18=Satchel-Mouth Baby
TTITLE19=Solid Potato Salad
TTITLE20=I call ma Papa - Fla-Ga-La-Pa
TTITLE21=It is better to be yourself
TTITLE22=The Frim Fram Sauce
TTITLE23=Come to Baby, do
EXTD=
EXTT0=
EXTT1=
EXTT2=
EXTT3=
EXTT4=
EXTT5=
EXTT6=
EXTT7=
EXTT8=
EXTT9=
EXTT10=
EXTT11=
EXTT12=
EXTT13=
EXTT14=
EXTT15=
EXTT16=
EXTT17=
EXTT18=
EXTT19=
EXTT20=
EXTT21=
EXTT22=
EXTT23=
PLAYORDER=
